<svg width="24" height="24" viewBox="0 0 24 24" fill="none" xmlns="http://www.w3.org/2000/svg">
<path d="M17.4 8.4001H19.2C19.4387 8.4001 19.6676 8.49492 19.8364 8.6637C20.0052 8.83248 20.1 9.0614 20.1 9.3001V20.1001C20.1 20.3388 20.0052 20.5677 19.8364 20.7365C19.6676 20.9053 19.4387 21.0001 19.2 21.0001H4.80002C4.56133 21.0001 4.33241 20.9053 4.16363 20.7365C3.99485 20.5677 3.90002 20.3388 3.90002 20.1001V9.3001C3.90002 9.0614 3.99485 8.83248 4.16363 8.6637C4.33241 8.49492 4.56133 8.4001 4.80002 8.4001H6.60002V7.5001C6.60002 6.06793 7.16895 4.69442 8.18165 3.68172C9.19434 2.66902 10.5679 2.1001 12 2.1001C13.4322 2.1001 14.8057 2.66902 15.8184 3.68172C16.8311 4.69442 17.4 6.06793 17.4 7.5001V8.4001ZM5.70002 10.2001V19.2001H18.3V10.2001H5.70002ZM11.1 13.8001H12.9V15.6001H11.1V13.8001ZM7.50002 13.8001H9.30002V15.6001H7.50002V13.8001ZM14.7 13.8001H16.5V15.6001H14.7V13.8001ZM15.6 8.4001V7.5001C15.6 6.54532 15.2207 5.62964 14.5456 4.95451C13.8705 4.27938 12.9548 3.9001 12 3.9001C11.0452 3.9001 10.1296 4.27938 9.45444 4.95451C8.77931 5.62964 8.40002 6.54532 8.40002 7.5001V8.4001H15.6Z" fill="#0E121B"/>
</svg>
