<svg width="30" height="28" viewBox="0 0 30 28" fill="none" xmlns="http://www.w3.org/2000/svg">
<g clip-path="url(#clip0_5_32)">
<path d="M19.1517 27.5796L8.30927 14.9624L17.3595 5.67764L29.995 20.3897L19.1517 27.5796Z" fill="url(#paint0_linear_5_32)"/>
<path d="M29.8603 20.2102H19.1863V27.6111H29.8603V20.2102Z" fill="#C77A6C"/>
<path d="M17.5286 0.000213623L11.1155 7.28326V0.42937H0.000366211V27.5925H11.1155L28.5931 7.71241L17.5286 0.000213623Z" fill="#FFE0D4"/>
<path d="M28.5928 0H17.5283V7.7122H28.5928V0Z" fill="#C77A6C"/>
<path d="M11.1155 0.000213623V7.1949L0.000366211 19.8803V0.000213623H11.1155Z" fill="url(#paint1_linear_5_32)"/>
<path d="M28.5087 7.76337H17.632L-0.0678711 27.6111H11.079L28.5087 7.76337Z" fill="black" fill-opacity="0.08"/>
</g>
<defs>
<linearGradient id="paint0_linear_5_32" x1="29.9952" y1="27.7636" x2="11.7055" y2="8.84087" gradientUnits="userSpaceOnUse">
<stop stop-color="#FFDFD9"/>
<stop offset="1" stop-color="#9E5E57"/>
</linearGradient>
<linearGradient id="paint1_linear_5_32" x1="5.55795" y1="0.000213623" x2="5.55795" y2="19.8803" gradientUnits="userSpaceOnUse">
<stop stop-color="#E9CBC3"/>
<stop offset="1" stop-color="#B27E71"/>
</linearGradient>
<clipPath id="clip0_5_32">
<rect width="29.8601" height="27.5923" fill="white"/>
</clipPath>
</defs>
</svg>
