<svg width="24" height="24" viewBox="0 0 24 24" fill="none" xmlns="http://www.w3.org/2000/svg">
<path d="M12 2.1001L19.3953 3.7435C19.5952 3.78793 19.7739 3.89917 19.902 4.05886C20.0302 4.21856 20.1 4.41716 20.1 4.6219V13.6102C20.1 14.4992 19.8804 15.3744 19.4609 16.1581C19.0414 16.9419 18.4349 17.6099 17.6952 18.103L12 21.9001L6.30482 18.103C5.56527 17.61 4.95884 16.9421 4.53934 16.1585C4.11984 15.3749 3.90024 14.4999 3.90002 13.6111V4.6219C3.90006 4.41716 3.9699 4.21856 4.09802 4.05886C4.22613 3.89917 4.40487 3.78793 4.60472 3.7435L12 2.1001ZM12 3.9442L5.70002 5.3437V13.6102C5.70003 14.2028 5.84634 14.7863 6.12596 15.3088C6.40558 15.8313 6.80986 16.2766 7.30292 16.6054L12 19.7374L16.6971 16.6054C17.1901 16.2767 17.5943 15.8315 17.8739 15.3092C18.1535 14.7868 18.2999 14.2036 18.3 13.6111V5.3437L12 3.9451V3.9442ZM12 7.5001C12.3963 7.49992 12.7816 7.63053 13.0961 7.87167C13.4106 8.11282 13.6367 8.45101 13.7394 8.83378C13.8421 9.21656 13.8155 9.62251 13.6639 9.98868C13.5123 10.3548 13.2441 10.6607 12.9009 10.8589L12.9 14.7001H11.1V10.8589C10.7569 10.6608 10.4887 10.355 10.3371 9.98888C10.1855 9.62281 10.1589 9.21694 10.2614 8.83422C10.364 8.45149 10.59 8.1133 10.9043 7.87208C11.2186 7.63087 11.6038 7.50011 12 7.5001Z" fill="#0E121B"/>
</svg>
