<svg width="32" height="32" viewBox="0 0 32 32" fill="none" xmlns="http://www.w3.org/2000/svg">
<path d="M12 20L20 12M20 12H14M20 12V18" stroke="#060619" stroke-width="2" stroke-linecap="round" stroke-linejoin="round"/>
<path d="M2.66666 16.0001C2.66666 9.71469 2.66666 6.57199 4.61928 4.61937C6.5719 2.66675 9.7146 2.66675 16 2.66675C22.2854 2.66675 25.4281 2.66675 27.3807 4.61937C29.3333 6.57199 29.3333 9.71469 29.3333 16.0001C29.3333 22.2855 29.3333 25.4282 27.3807 27.3808C25.4281 29.3334 22.2854 29.3334 16 29.3334C9.7146 29.3334 6.5719 29.3334 4.61928 27.3808C2.66666 25.4282 2.66666 22.2855 2.66666 16.0001Z" stroke="#060619" stroke-width="2"/>
</svg>
