<svg width="32" height="32" viewBox="0 0 32 32" fill="none" xmlns="http://www.w3.org/2000/svg">
<path d="M2.66663 16.0001C2.66663 9.71469 2.66663 6.57199 4.61925 4.61937C6.57187 2.66675 9.71457 2.66675 16 2.66675C22.2854 2.66675 25.4281 2.66675 27.3807 4.61937C29.3333 6.57199 29.3333 9.71469 29.3333 16.0001C29.3333 22.2855 29.3333 25.4282 27.3807 27.3808C25.4281 29.3334 22.2854 29.3334 16 29.3334C9.71457 29.3334 6.57187 29.3334 4.61925 27.3808C2.66663 25.4282 2.66663 22.2855 2.66663 16.0001Z" stroke="#060619" stroke-width="2"/>
<path d="M9.33337 24L9.33337 20" stroke="#060619" stroke-width="2" stroke-linecap="round"/>
<path d="M16 24V16" stroke="#060619" stroke-width="2" stroke-linecap="round"/>
<path d="M22.6666 24V12" stroke="#060619" stroke-width="2" stroke-linecap="round"/>
</svg>
