<svg width="32" height="32" viewBox="0 0 32 32" fill="none" xmlns="http://www.w3.org/2000/svg">
<path d="M29.3333 14.0001V16.0001C29.3333 22.2855 29.3333 25.4282 27.3807 27.3808C25.4281 29.3334 22.2854 29.3334 16 29.3334C9.71461 29.3334 6.57191 29.3334 4.61929 27.3808C2.66667 25.4282 2.66667 22.2855 2.66667 16.0001C2.66667 9.71469 2.66667 6.57199 4.61929 4.61937C6.57191 2.66675 9.71461 2.66675 16 2.66675H18" stroke="#060619" stroke-width="2" stroke-linecap="round"/>
<path d="M22.2027 4.60683L23.0678 3.74174C24.5011 2.30842 26.825 2.30842 28.2583 3.74174C29.6917 5.17506 29.6917 7.49894 28.2583 8.93227L27.3933 9.79735M22.2027 4.60683C22.2027 4.60683 22.3109 6.44514 23.9329 8.06718C25.5549 9.68922 27.3933 9.79735 27.3933 9.79735M22.2027 4.60683L14.2496 12.56C13.7109 13.0987 13.4415 13.368 13.2099 13.665C12.9367 14.0153 12.7024 14.3944 12.5113 14.7954C12.3492 15.1354 12.2288 15.4968 11.9879 16.2195L11.2166 18.5334M27.3933 9.79735L19.4401 17.7505C18.9014 18.2892 18.6321 18.5585 18.3351 18.7902C17.9848 19.0634 17.6057 19.2977 17.2047 19.4888C16.8647 19.6509 16.5033 19.7713 15.7806 20.0122L13.4667 20.7835M13.4667 20.7835L11.9695 21.2826C11.6138 21.4011 11.2217 21.3086 10.9566 21.0435C10.6915 20.7784 10.5989 20.3863 10.7175 20.0306L11.2166 18.5334M13.4667 20.7835L11.2166 18.5334" stroke="#060619" stroke-width="2"/>
</svg>
