<svg width="127" height="28" viewBox="0 0 127 28" fill="none" xmlns="http://www.w3.org/2000/svg">
<g clip-path="url(#clip0_36841_3472)">
<path d="M19.1517 27.649L8.3092 15.0318L17.3595 5.74707L29.995 20.4591L19.1517 27.649Z" fill="url(#paint0_linear_36841_3472)"/>
<path d="M29.8603 20.2795H19.1863V27.6804H29.8603V20.2795Z" fill="#C77A6C"/>
<path d="M17.5286 0.0695801L11.1155 7.35262V0.498737H0.000366211V27.6618H11.1155L28.5931 7.78178L17.5286 0.0695801Z" fill="#FFE0D4"/>
<path d="M28.5928 0.0693359H17.5283V7.78153H28.5928V0.0693359Z" fill="#C77A6C"/>
<path d="M11.1155 0.0695801V7.26426L0.000366211 19.9496V0.0695801H11.1155Z" fill="url(#paint1_linear_36841_3472)"/>
<path d="M28.5087 7.83276H17.632L-0.0678711 27.6805H11.079L28.5087 7.83276Z" fill="black" fill-opacity="0.08"/>
</g>
<path d="M38.9316 27.156V0.00193167H44.8156V12.1403C46.2417 11.5652 47.5655 10.83 48.7851 9.9384C50.0048 9.04684 51.1028 8.05301 52.0773 6.95496C53.05 5.85884 53.8663 4.72025 54.5262 3.53922C55.1843 2.36012 55.6783 1.18103 56.0064 0H62.7954C62.4114 1.34506 61.8344 2.6747 61.0682 3.99081C60.3002 5.30692 59.3739 6.56319 58.2913 7.7558C57.2067 8.94841 56.0701 9.99823 54.8755 10.9033C53.6829 11.8084 52.4691 12.5494 51.234 13.1245V13.659C52.5231 13.659 53.6675 13.8096 54.6691 14.1125C55.6706 14.4155 56.568 14.8671 57.363 15.4711C58.1581 16.0751 58.8509 16.8355 59.4414 17.754C60.0319 18.6726 60.5453 19.7765 60.9852 21.0656L63.2064 27.154H56.5004L55.0608 22.2176C54.6498 20.8745 54.1422 19.7977 53.5382 18.9872C52.9342 18.1786 52.1314 17.5881 51.1318 17.2176C50.1302 16.847 48.8334 16.6618 47.2432 16.6618H44.8156V27.154H38.9316V27.156Z" fill="white"/>
<path d="M70.3711 27.731C67.8469 27.731 65.9403 26.8742 64.6531 25.1586C63.364 23.445 62.7195 20.8321 62.7195 17.3198V5.552H68.6845V16.5788C68.6845 18.6919 68.999 20.2686 69.63 21.3106C70.2611 22.3527 71.2202 22.8738 72.5093 22.8738C73.3044 22.8738 73.9836 22.6827 74.5452 22.2987C75.1068 21.9147 75.595 21.3724 76.0061 20.6738C76.4171 19.9752 76.7317 19.1647 76.9517 18.2461C77.1697 17.3276 77.2932 16.3202 77.3222 15.2222V5.55393H83.2061V27.154H78.4337V20.4056H77.6522C77.2411 22.1057 76.7201 23.499 76.089 24.5816C75.458 25.6662 74.6764 26.4612 73.7444 26.9688C72.8123 27.4763 71.6872 27.7291 70.3711 27.7291V27.731Z" fill="white"/>
<path d="M91.6182 27.156L84.3757 5.59644H90.9177L95.4431 22.5072H96.1011L100.709 5.59644H107.004L99.7639 27.156H91.6182Z" fill="white"/>
<path d="M117.249 27.7309C115.493 27.7309 113.916 27.4839 112.517 26.9899C111.118 26.4959 109.939 25.7838 108.98 24.8498C108.019 23.9177 107.285 22.7714 106.778 21.4147C106.27 20.0562 106.018 18.5008 106.018 16.7447C106.018 14.9886 106.265 13.4332 106.759 11.9935C107.253 10.5539 107.951 9.31305 108.856 8.27096C109.761 7.22888 110.9 6.42031 112.272 5.8433C113.644 5.26822 115.151 4.97876 116.797 4.97876C118.443 4.97876 119.985 5.25279 121.261 5.80085C122.537 6.35084 123.6 7.1517 124.449 8.20729C125.298 9.26288 125.931 10.5597 126.342 12.0958C126.753 13.6319 126.904 15.4285 126.796 17.4857L109.844 17.6092V14.4L123.38 14.2359L121.323 15.8415C121.487 14.4154 121.377 13.2363 120.993 12.3023C120.609 11.3702 120.047 10.6774 119.306 10.2239C118.565 9.77041 117.756 9.54462 116.878 9.54462C115.836 9.54462 114.931 9.82637 114.163 10.3879C113.395 10.9514 112.785 11.76 112.332 12.8156C111.878 13.8712 111.653 15.141 111.653 16.6212C111.653 18.9813 112.16 20.7007 113.175 21.7853C114.19 22.8698 115.533 23.4102 117.206 23.4102C117.975 23.4102 118.625 23.3079 119.161 23.1014C119.696 22.8949 120.142 22.6286 120.499 22.2986C120.856 21.9686 121.136 21.6 121.342 21.187C121.549 20.776 121.718 20.3649 121.857 19.952L127 21.0635C126.753 22.0786 126.39 22.9972 125.91 23.8212C125.429 24.6433 124.792 25.3438 123.997 25.9189C123.202 26.494 122.249 26.9417 121.137 27.2562C120.026 27.5708 118.731 27.729 117.249 27.729V27.7309Z" fill="white"/>
<defs>
<linearGradient id="paint0_linear_36841_3472" x1="29.9951" y1="27.8331" x2="11.7055" y2="8.9103" gradientUnits="userSpaceOnUse">
<stop stop-color="#FFDFD9"/>
<stop offset="1" stop-color="#9E5E57"/>
</linearGradient>
<linearGradient id="paint1_linear_36841_3472" x1="5.55795" y1="0.0695801" x2="5.55795" y2="19.9496" gradientUnits="userSpaceOnUse">
<stop stop-color="#E9CBC3"/>
<stop offset="1" stop-color="#B27E71"/>
</linearGradient>
<clipPath id="clip0_36841_3472">
<rect width="29.8601" height="27.5923" fill="white" transform="translate(0 0.0693359)"/>
</clipPath>
</defs>
</svg>
