<svg width="106" height="24" viewBox="0 0 106 24" fill="none" xmlns="http://www.w3.org/2000/svg">
<g clip-path="url(#clip0_36841_3529)">
<path d="M15.8437 23.4025L6.87415 12.9648L14.3611 5.28384L24.814 17.4546L15.8437 23.4025Z" fill="url(#paint0_linear_36841_3529)"/>
<path d="M24.7025 17.3061H15.8723V23.4286H24.7025V17.3061Z" fill="#C77A6C"/>
<path d="M14.5005 0.587158L9.19517 6.61215V0.942184H0V23.4132H9.19517L23.6537 6.96718L14.5005 0.587158Z" fill="#FFE0D4"/>
<path d="M23.6537 0.586914H14.5005V6.96694H23.6537V0.586914Z" fill="#C77A6C"/>
<path d="M9.19517 0.587158V6.53906L0 17.0332V0.587158H9.19517Z" fill="url(#paint1_linear_36841_3529)"/>
<path d="M23.5838 7.00928H14.586L-0.0565186 23.4286H9.16489L23.5838 7.00928Z" fill="black" fill-opacity="0.08"/>
</g>
<path d="M32.2064 22.9947V0.53117H37.074V10.5728C38.2537 10.0971 39.3489 9.48881 40.3579 8.75125C41.3668 8.0137 42.2752 7.19153 43.0814 6.28316C43.886 5.37638 44.5613 4.43446 45.1073 3.45744C45.6517 2.48202 46.0604 1.50659 46.3317 0.529572H51.948C51.6303 1.64229 51.153 2.74225 50.5192 3.83102C49.8838 4.9198 49.1175 5.95906 48.2219 6.94567C47.3247 7.93227 46.3844 8.80074 45.3962 9.54947C44.4096 10.2982 43.4055 10.9112 42.3837 11.387V11.8292C43.4502 11.8292 44.3969 11.9537 45.2254 12.2044C46.054 12.455 46.7963 12.8286 47.454 13.3283C48.1118 13.8279 48.6849 14.4569 49.1734 15.2168C49.6619 15.9768 50.0866 16.8899 50.4506 17.9563L52.2881 22.9931H46.7404L45.5495 18.9094C45.2094 17.7983 44.7896 16.9075 44.2899 16.237C43.7902 15.5681 43.1261 15.0795 42.2991 14.773C41.4706 14.4665 40.3978 14.3133 39.0823 14.3133H37.074V22.9931H32.2064V22.9947Z" fill="#2B2A2C"/>
<path d="M58.2154 23.4704C56.1272 23.4704 54.55 22.7616 53.4851 21.3424C52.4187 19.9247 51.8855 17.7631 51.8855 14.8576V5.1225H56.8201V14.2446C56.8201 15.9927 57.0803 17.297 57.6024 18.1591C58.1244 19.0211 58.9178 19.4522 59.9843 19.4522C60.642 19.4522 61.2039 19.2941 61.6685 18.9764C62.1331 18.6587 62.537 18.2101 62.877 17.6322C63.217 17.0543 63.4773 16.3838 63.6593 15.6239C63.8397 14.864 63.9418 14.0306 63.9658 13.1223V5.1241H68.8333V22.9931H64.8853V17.4103H64.2388C63.8987 18.8168 63.4677 19.9694 62.9457 20.865C62.4236 21.7622 61.7771 22.42 61.006 22.8398C60.2349 23.2597 59.3042 23.4688 58.2154 23.4688V23.4704Z" fill="#2B2A2C"/>
<path d="M75.7924 22.9947L69.8009 5.15921H75.2128L78.9565 19.1488H79.5009L83.3132 5.15921H88.5208L82.5309 22.9947H75.7924Z" fill="#2B2A2C"/>
<path d="M96.9955 23.4704C95.5428 23.4704 94.2385 23.2661 93.081 22.8574C91.9236 22.4487 90.9482 21.8596 90.1548 21.0869C89.3597 20.3159 88.7531 19.3676 88.3332 18.2453C87.9134 17.1214 87.7042 15.8346 87.7042 14.3819C87.7042 12.9291 87.9086 11.6424 88.3173 10.4514C88.7259 9.2605 89.3039 8.23398 90.0526 7.3719C90.8013 6.50982 91.7432 5.84092 92.8783 5.36358C94.0134 4.88784 95.2602 4.64838 96.622 4.64838C97.9837 4.64838 99.2593 4.87507 100.315 5.32846C101.37 5.78345 102.249 6.44597 102.952 7.31922C103.654 8.19248 104.178 9.26529 104.518 10.5361C104.858 11.8068 104.983 13.2931 104.893 14.9949L90.87 15.0971V12.4422L102.067 12.3065L100.366 13.6347C100.501 12.455 100.41 11.4795 100.093 10.7069C99.7749 9.93579 99.3104 9.36266 98.6973 8.9875C98.0843 8.61233 97.4154 8.42555 96.689 8.42555C95.8269 8.42555 95.0782 8.65863 94.4428 9.12319C93.8074 9.58935 93.3029 10.2583 92.9278 11.1315C92.5526 12.0048 92.3658 13.0552 92.3658 14.2797C92.3658 16.2322 92.7857 17.6546 93.6254 18.5518C94.4652 19.449 95.5763 19.896 96.9604 19.896C97.5958 19.896 98.1338 19.8114 98.5776 19.6406C99.0198 19.4697 99.3886 19.2494 99.6839 18.9764C99.9793 18.7035 100.211 18.3985 100.382 18.0569C100.552 17.7169 100.693 17.3768 100.808 17.0352L105.062 17.9547C104.858 18.7945 104.558 19.5543 104.16 20.236C103.763 20.9161 103.236 21.4956 102.578 21.9714C101.921 22.4471 101.132 22.8175 100.212 23.0777C99.2928 23.3379 98.2216 23.4688 96.9955 23.4688V23.4704Z" fill="#2B2A2C"/>
<defs>
<linearGradient id="paint0_linear_36841_3529" x1="24.8141" y1="23.5548" x2="9.68375" y2="7.90067" gradientUnits="userSpaceOnUse">
<stop stop-color="#FFDFD9"/>
<stop offset="1" stop-color="#9E5E57"/>
</linearGradient>
<linearGradient id="paint1_linear_36841_3529" x1="4.59758" y1="0.587158" x2="4.59758" y2="17.0332" gradientUnits="userSpaceOnUse">
<stop stop-color="#E9CBC3"/>
<stop offset="1" stop-color="#B27E71"/>
</linearGradient>
<clipPath id="clip0_36841_3529">
<rect width="24.7022" height="22.8261" fill="white" transform="translate(0 0.586945)"/>
</clipPath>
</defs>
</svg>
