<svg width="20" height="20" viewBox="0 0 20 20" fill="none" xmlns="http://www.w3.org/2000/svg">
<g clip-path="url(#clip0_7538_44379)" filter="url(#filter0_i_7538_44379)">
<path d="M10 20C15.5228 20 20 15.5228 20 10C20 4.47715 15.5228 0 10 0C4.47715 0 0 4.47715 0 10C0 15.5228 4.47715 20 10 20Z" fill="#F0F0F0"/>
<path d="M0 9.99906C0 14.2988 2.71375 17.9641 6.52176 19.3771V0.621094C2.71375 2.03398 0 5.69945 0 9.99906V9.99906Z" fill="#6DA544"/>
<path d="M20 9.99906C20 5.69945 17.2863 2.03398 13.4783 0.621094V19.3771C17.2863 17.9641 20 14.2988 20 9.99906V9.99906Z" fill="#6DA544"/>
</g>
<defs>
<filter id="filter0_i_7538_44379" x="0" y="0" width="20" height="20" filterUnits="userSpaceOnUse" color-interpolation-filters="sRGB">
<feFlood flood-opacity="0" result="BackgroundImageFix"/>
<feBlend mode="normal" in="SourceGraphic" in2="BackgroundImageFix" result="shape"/>
<feColorMatrix in="SourceAlpha" type="matrix" values="0 0 0 0 0 0 0 0 0 0 0 0 0 0 0 0 0 0 127 0" result="hardAlpha"/>
<feOffset/>
<feGaussianBlur stdDeviation="1"/>
<feComposite in2="hardAlpha" operator="arithmetic" k2="-1" k3="1"/>
<feColorMatrix type="matrix" values="0 0 0 0 0 0 0 0 0 0 0 0 0 0 0 0 0 0 0.2 0"/>
<feBlend mode="normal" in2="shape" result="effect1_innerShadow_7538_44379"/>
</filter>
<clipPath id="clip0_7538_44379">
<rect width="20" height="20" fill="white"/>
</clipPath>
</defs>
</svg>
