<svg width="20" height="20" viewBox="0 0 20 20" fill="none" xmlns="http://www.w3.org/2000/svg">
<g clip-path="url(#clip0_7538_44361)" filter="url(#filter0_i_7538_44361)">
<path d="M10 20C15.5228 20 20 15.5228 20 10C20 4.47715 15.5228 0 10 0C4.47715 0 0 4.47715 0 10C0 15.5228 4.47715 20 10 20Z" fill="#F0F0F0"/>
<path d="M2.06718 3.91016C1.28167 4.93215 0.689365 6.11008 0.344482 7.38973H5.54675L2.06718 3.91016Z" fill="#0052B4"/>
<path d="M19.6556 7.38969C19.3107 6.11008 18.7183 4.93215 17.9329 3.91016L14.4534 7.38969H19.6556Z" fill="#0052B4"/>
<path d="M0.344482 12.6094C0.689404 13.889 1.28171 15.0669 2.06718 16.0889L5.54663 12.6094H0.344482Z" fill="#0052B4"/>
<path d="M16.0882 2.06648C15.0662 1.28098 13.8883 0.688672 12.6086 0.34375V5.54598L16.0882 2.06648Z" fill="#0052B4"/>
<path d="M3.91187 17.9326C4.93386 18.7181 6.11179 19.3104 7.3914 19.6553V14.4531L3.91187 17.9326Z" fill="#0052B4"/>
<path d="M7.39136 0.34375C6.11175 0.688672 4.93382 1.28098 3.91187 2.06645L7.39136 5.54594V0.34375Z" fill="#0052B4"/>
<path d="M12.6086 19.6553C13.8883 19.3104 15.0662 18.7181 16.0881 17.9326L12.6086 14.4531V19.6553Z" fill="#0052B4"/>
<path d="M14.4534 12.6094L17.9329 16.0889C18.7183 15.067 19.3107 13.889 19.6556 12.6094H14.4534Z" fill="#0052B4"/>
<path d="M19.9154 8.69566H11.3044H11.3044V0.0846484C10.8774 0.0290625 10.4421 0 10 0C9.55785 0 9.12262 0.0290625 8.69566 0.0846484V8.69559V8.69563H0.0846484C0.0290625 9.12262 0 9.55793 0 10C0 10.4421 0.0290625 10.8774 0.0846484 11.3043H8.69559H8.69563V19.9154C9.12262 19.9709 9.55785 20 10 20C10.4421 20 10.8774 19.971 11.3043 19.9154V11.3044V11.3044H19.9154C19.9709 10.8774 20 10.4421 20 10C20 9.55793 19.9709 9.12262 19.9154 8.69566V8.69566Z" fill="#D80027"/>
<path d="M12.6086 12.6094L17.071 17.0718C17.2762 16.8666 17.472 16.6521 17.6588 16.4298L13.8384 12.6094H12.6086V12.6094Z" fill="#D80027"/>
<path d="M7.39134 12.6094H7.39126L2.92896 17.0717C3.13411 17.2769 3.3486 17.4727 3.57095 17.6595L7.39134 13.839V12.6094Z" fill="#D80027"/>
<path d="M7.39122 7.39215V7.39207L2.92888 2.92969C2.72364 3.13484 2.52786 3.34934 2.34106 3.57168L6.16149 7.39211H7.39122V7.39215Z" fill="#D80027"/>
<path d="M12.6086 7.39004L17.071 2.92762C16.8659 2.72238 16.6514 2.5266 16.429 2.33984L12.6086 6.16027V7.39004Z" fill="#D80027"/>
</g>
<defs>
<filter id="filter0_i_7538_44361" x="0" y="0" width="20" height="20" filterUnits="userSpaceOnUse" color-interpolation-filters="sRGB">
<feFlood flood-opacity="0" result="BackgroundImageFix"/>
<feBlend mode="normal" in="SourceGraphic" in2="BackgroundImageFix" result="shape"/>
<feColorMatrix in="SourceAlpha" type="matrix" values="0 0 0 0 0 0 0 0 0 0 0 0 0 0 0 0 0 0 127 0" result="hardAlpha"/>
<feOffset/>
<feGaussianBlur stdDeviation="1"/>
<feComposite in2="hardAlpha" operator="arithmetic" k2="-1" k3="1"/>
<feColorMatrix type="matrix" values="0 0 0 0 0 0 0 0 0 0 0 0 0 0 0 0 0 0 0.2 0"/>
<feBlend mode="normal" in2="shape" result="effect1_innerShadow_7538_44361"/>
</filter>
<clipPath id="clip0_7538_44361">
<rect width="20" height="20" fill="white"/>
</clipPath>
</defs>
</svg>
